<?xml version="1.0" encoding="UTF-8"?>
<svg id="Capa_2" data-name="Capa 2" xmlns="http://www.w3.org/2000/svg" viewBox="0 0 566 566">
  <defs>
    <style>
      .cls-1 {
        fill: #efefef;
      }
    </style>
  </defs>
  <g id="Capa_1-2" data-name="Capa 1">
    <path class="cls-1" d="M283,0c-24.43,0-48.13,3.1-70.75,8.92-25.1,6.46-48.85,16.27-70.75,28.94-16.33,9.44-31.63,20.48-45.69,32.89-8.86,7.82-17.24,16.19-25.06,25.06-12.41,14.06-23.45,29.36-32.89,45.69-12.67,21.9-22.48,45.65-28.94,70.75C3.1,234.87,0,258.57,0,283s3.1,48.13,8.92,70.75c6.46,25.1,16.27,48.85,28.94,70.75,9.44,16.33,20.48,31.63,32.89,45.69,7.82,8.86,16.19,17.24,25.06,25.06,14.06,12.41,29.36,23.45,45.69,32.89,21.9,12.67,45.65,22.48,70.75,28.94,22.62,5.83,46.32,8.92,70.75,8.92h141.5v-283h-141.5v70.75h70.75v141.5h-70.75c-24.81,0-48.62-4.25-70.75-12.08-26.36-9.33-50.34-23.71-70.75-41.99-5.88-5.24-11.45-10.81-16.69-16.69-18.28-20.41-32.66-44.39-41.99-70.75-7.82-22.13-12.08-45.94-12.08-70.75s4.25-48.62,12.08-70.75c9.33-26.36,23.71-50.34,41.99-70.75,5.24-5.88,10.81-11.45,16.69-16.69,20.41-18.28,44.39-32.66,70.75-41.99,22.13-7.82,45.94-12.08,70.75-12.08h212.25v495.25h70.75V0h-283Z"/>
  </g>
</svg>